<svg viewBox="0 0 32 32" fill="none" xmlns="http://www.w3.org/2000/svg">
  <path d="M2.65625 22V10.3636H7.7017C8.58807 10.3636 9.33239 10.483 9.93466 10.7216C10.5407 10.9602 10.9972 11.2973 11.304 11.733C11.6146 12.1686 11.7699 12.6818 11.7699 13.2727C11.7699 13.7008 11.6752 14.0909 11.4858 14.4432C11.3002 14.7955 11.0388 15.0909 10.7017 15.3295C10.3646 15.5644 9.97064 15.7273 9.51989 15.8182V15.9318C10.0199 15.9508 10.4744 16.0777 10.8835 16.3125C11.2926 16.5436 11.6184 16.8636 11.8608 17.2727C12.1032 17.678 12.2244 18.1553 12.2244 18.7045C12.2244 19.3409 12.0578 19.9072 11.7244 20.4034C11.3949 20.8996 10.9252 21.2898 10.3153 21.5739C9.70549 21.858 8.97822 22 8.13352 22H2.65625ZM5.81534 19.4773H7.29261C7.82292 19.4773 8.22064 19.3788 8.4858 19.1818C8.75095 18.9811 8.88352 18.6856 8.88352 18.2955C8.88352 18.0227 8.82102 17.7917 8.69602 17.6023C8.57102 17.4129 8.39299 17.2689 8.16193 17.1705C7.93466 17.072 7.66004 17.0227 7.33807 17.0227H5.81534V19.4773ZM5.81534 15.0682H7.1108C7.38731 15.0682 7.63163 15.0246 7.84375 14.9375C8.05587 14.8504 8.22064 14.7254 8.33807 14.5625C8.45928 14.3958 8.51989 14.1932 8.51989 13.9545C8.51989 13.5947 8.3911 13.3201 8.13352 13.1307C7.87595 12.9375 7.55019 12.8409 7.15625 12.8409H5.81534V15.0682ZM16.2983 22L12.8665 10.3636H16.3892L17.9801 17.5227H18.071L19.9574 10.3636H22.7301L24.6165 17.5455H24.7074L26.2983 10.3636H29.821L26.3892 22H23.3665L21.3892 15.5H21.2983L19.321 22H16.2983Z"
        fill="black" />
</svg>
